<?xml version="1.0" encoding="UTF-8"?>
<svg version="1.1" xmlns="http://www.w3.org/2000/svg" width="272" height="272">
<path d="M0 0 C0 0.66 0 1.32 0 2 C0.66 1.67 1.32 1.34 2 1 C6.24445133 0.75172547 10.4991159 0.81024579 14.75 0.8125 C15.97960449 0.81185547 17.20920898 0.81121094 18.47607422 0.81054688 C25.89930271 0.85379089 32.92428201 1.25062568 40.234375 2.5546875 C44.20045932 3.1932943 47.99248277 3.13819025 52 3 C52.2465332 3.63945557 52.49306641 4.27891113 52.74707031 4.93774414 C53.79297276 7.13907957 53.79297276 7.13907957 55.83886719 7.68530273 C56.56750977 7.78786377 57.29615234 7.8904248 58.046875 7.99609375 C63.20453019 8.943313 67.54726685 10.78447702 72.25 13.0625 C73.07773926 13.46098145 73.90547852 13.85946289 74.75830078 14.27001953 C87.90704183 20.76142867 99.93873109 29.82637891 110.2421875 40.2734375 C111.88150514 42.10838044 111.88150514 42.10838044 114.0625 42.8125 C116.59199236 44.36283403 116.9503939 46.14880719 117.97265625 48.83984375 C119.24282685 51.51058269 120.89136876 53.65067434 122.6875 56 C126.06312848 60.50292556 128.86534273 65.10566115 131.5 70.0625 C131.85022217 70.71798828 132.20044434 71.37347656 132.5612793 72.04882812 C135 76.72861837 135 76.72861837 135 79 C135.99 79.33 136.98 79.66 138 80 C138.13277344 80.68707031 138.26554688 81.37414062 138.40234375 82.08203125 C138.66724609 83.43361328 138.66724609 83.43361328 138.9375 84.8125 C139.11152344 85.70582031 139.28554687 86.59914063 139.46484375 87.51953125 C139.97741153 90.11397171 139.97741153 90.11397171 141 93 C141.66 93.33 142.32 93.66 143 94 C143.37890625 96.328125 143.37890625 96.328125 143.5625 99.25 C143.75056684 102.09019304 143.95924709 104.79836433 144.5234375 107.58984375 C145.21798222 111.10241828 145.0605959 114.42484172 145 118 C145.66 118 146.32 118 147 118 C148.125 121.75 148.125 121.75 147 124 C146.88628045 126.12276484 146.77909108 128.24614939 146.71044922 130.37084961 C145.97839655 152.89506441 141.84291149 174.90383055 129.6015625 194.1875 C127.85787782 196.86069343 127.85787782 196.86069343 127.5859375 199.6875 C127 202 127 202 124.796875 203.40234375 C123.87390625 203.92957031 122.9509375 204.45679688 122 205 C119.92828069 207.05787871 118.10153441 209.30674253 116.25 211.5625 C115.18972878 212.82629887 114.12852369 214.08931483 113.06640625 215.3515625 C112.5470752 215.97192383 112.02774414 216.59228516 111.49267578 217.23144531 C106.40082488 223.26438086 101.12029979 229.07898306 95.3125 234.4296875 C93.7910285 236.25001947 93.40092444 237.68466134 93 240 C92.00742188 240.24234375 91.01484375 240.4846875 89.9921875 240.734375 C85.67158428 241.97007186 82.01544398 244.04289921 78.125 246.25 C71.39898289 249.96041598 64.66656716 252.79379819 57.35791016 255.14746094 C53.30910392 256.42288509 53.30910392 256.42288509 50 259 C48.1015625 259.34375 48.1015625 259.34375 45.625 259.5 C40.01026163 259.91645742 34.41394854 260.43563269 28.8125 261 C27.96961426 261.08314453 27.12672852 261.16628906 26.25830078 261.25195312 C22.30972739 261.6454935 18.37977806 262.07887018 14.44921875 262.625 C13.31097656 262.74875 12.17273438 262.8725 11 263 C10.67 262.67 10.34 262.34 10 262 C8.16021071 261.80364198 6.31952077 261.61370759 4.47607422 261.45532227 C-3.24947162 260.78064064 -10.63028327 259.56764584 -18.125 257.5625 C-18.89312012 257.3572168 -19.66124023 257.15193359 -20.45263672 256.94042969 C-24.17013977 255.90603628 -27.77565203 254.73621344 -31.375 253.34375 C-34.68050767 252.1184325 -36.57664987 251.89931323 -40 252 C-40.66 251.34 -41.32 250.68 -42 250 C-42 249.01 -42 248.02 -42 247 C-42.69996094 246.74089844 -43.39992188 246.48179687 -44.12109375 246.21484375 C-54.32415277 241.90934666 -62.63566939 235.18084973 -70.46875 227.48291016 C-72.02261602 225.97809794 -73.61480339 224.52538559 -75.21875 223.07421875 C-89.22111786 210.1210377 -98.72581759 193.34605674 -104.79882812 175.38476562 C-105.44915882 173.55797462 -106.21653119 171.77377338 -107 170 C-107.99 169.67 -108.98 169.34 -110 169 C-111.17755913 166.05610218 -111.03348696 165.10046087 -110 162 C-110.54569276 159.79138037 -111.18490661 157.6053451 -111.875 155.4375 C-116.03259079 141.44505651 -115.45560052 127.42604086 -114 113 C-114.66 112.67 -115.32 112.34 -116 112 C-116 110.35 -116 108.7 -116 107 C-114.02 106.505 -114.02 106.505 -112 106 C-111.82984375 104.28103516 -111.82984375 104.28103516 -111.65625 102.52734375 C-111.08575256 98.01783878 -109.94060245 93.86517584 -108.5 89.5625 C-108.24444336 88.79260742 -107.98888672 88.02271484 -107.72558594 87.22949219 C-105.19561698 79.96507839 -101.72018281 73.35873133 -97.953125 66.671875 C-96.21771838 63.54944546 -95.00400806 60.43926165 -94 57 C-93.01 57 -92.02 57 -91 57 C-90.7525 56.26652344 -90.505 55.53304687 -90.25 54.77734375 C-88.88205559 51.73794226 -87.31123613 49.94596226 -85 47.5625 C-82.3871121 44.75294311 -81.08412509 43.2570489 -79.875 39.5625 C-79.441875 38.2940625 -79.441875 38.2940625 -79 37 C-77.00491933 36.31875294 -75.00361307 35.65572791 -73 35 C-67.78256252 31.22941493 -63.16002525 27.6287157 -62 21 C-57.45550571 19.86387643 -57.45550571 19.86387643 -55.04174805 20.58520508 C-51.96850992 21.20955418 -50.23005713 19.62148955 -47.72070312 17.98632812 C-47.09099609 17.55771484 -46.46128906 17.12910156 -45.8125 16.6875 C-45.17119141 16.27048828 -44.52988281 15.85347656 -43.86914062 15.42382812 C-40.37944962 13.2427341 -40.37944962 13.2427341 -38 10 C-36.08398437 9.69360352 -36.08398437 9.69360352 -33.59375 9.56640625 C-27.93615188 9.10803603 -22.88328995 7.67417513 -17.5 5.9375 C-15.74029072 5.38186925 -13.97990589 4.82837207 -12.21875 4.27734375 C-11.45498047 4.03234131 -10.69121094 3.78733887 -9.90429688 3.53491211 C-8 3 -8 3 -6 3 C-6 2.01 -6 1.02 -6 0 C-3 -1 -3 -1 0 0 Z M11 3 C11 3.33 11 3.66 11 4 C14.3 4 17.6 4 21 4 C21 3.67 21 3.34 21 3 C17.7 3 14.4 3 11 3 Z M36 5 C39.68734758 7.45823172 42.69699971 8.01242616 47 9 C47 8.34 47 7.68 47 7 C43.12315913 5.80712589 40.08378077 5 36 5 Z M-12 8 C-6.27959989 8.8320582 -0.77759884 9.12036664 5 9 C1.92603295 6.29690601 0.01786274 5.60749289 -4.0625 5.6875 C-4.91972656 5.69136719 -5.77695313 5.69523438 -6.66015625 5.69921875 C-9.26887304 5.85851846 -9.26887304 5.85851846 -12 8 Z M7 6 C7.66 6.66 8.32 7.32 9 8 C10.32 8 11.64 8 13 8 C13 8.66 13 9.32 13 10 C17.24860767 10.5326386 21.49903225 11.0490656 25.75 11.5625 C27.55984375 11.78969727 27.55984375 11.78969727 29.40625 12.02148438 C30.56640625 12.16005859 31.7265625 12.29863281 32.921875 12.44140625 C33.99018555 12.57232666 35.05849609 12.70324707 36.15917969 12.83813477 C38.75583919 12.98608812 40.55233537 12.80814243 43 12 C40.41710408 11.18608745 37.83371003 10.37382071 35.25 9.5625 C34.52039063 9.33240234 33.79078125 9.10230469 33.0390625 8.86523438 C32.33007812 8.64287109 31.62109375 8.42050781 30.890625 8.19140625 C30.24125977 7.98717041 29.59189453 7.78293457 28.92285156 7.57250977 C24.11621795 6.14138282 19.76320893 5.87992781 14.75 5.9375 C13.63238281 5.94426758 13.63238281 5.94426758 12.4921875 5.95117188 C10.6614236 5.96290754 8.83070127 5.9808415 7 6 Z M53 9 C53 9.99 53 10.98 53 12 C53.99 12.33 54.98 12.66 56 13 C56.33 13.66 56.66 14.32 57 15 C58.6209824 15.61203448 60.27497533 16.13696121 61.9375 16.625 C68.55582397 18.70869428 74.75804987 21.49105074 81.03100586 24.44580078 C81.77616455 24.78981934 82.52132324 25.13383789 83.2890625 25.48828125 C84.28993896 25.96068237 84.28993896 25.96068237 85.31103516 26.44262695 C87.08877308 27.2493575 87.08877308 27.2493575 89 26 C77.70717117 18.66823086 66.24602087 12.00184851 53 9 Z M-22.75 11.3125 C-23.51699219 11.43044922 -24.28398438 11.54839844 -25.07421875 11.66992188 C-27.06954377 12.0118273 -29.0389924 12.49733666 -31 13 C-31.66 13.99 -32.32 14.98 -33 16 C-32.57847656 16.54269531 -32.15695313 17.08539063 -31.72265625 17.64453125 C-31.17480469 18.35996094 -30.62695312 19.07539063 -30.0625 19.8125 C-29.24458984 20.87404297 -29.24458984 20.87404297 -28.41015625 21.95703125 C-27 24 -27 24 -26 27 C-23.27054975 28.50978217 -23.27054975 28.50978217 -20 29 C-17.24781 28.06313695 -17.24781 28.06313695 -14.70703125 26.23828125 C-13.74732422 25.61373047 -12.78761719 24.98917969 -11.79882812 24.34570312 C-10.3205957 23.33926758 -10.3205957 23.33926758 -8.8125 22.3125 C-7.81541016 21.66087891 -6.81832031 21.00925781 -5.79101562 20.33789062 C-0.04561628 16.59836996 -0.04561628 16.59836996 5 12 C2.95928485 11.66089006 0.91737379 11.32897296 -1.125 11 C-2.26195313 10.814375 -3.39890625 10.62875 -4.5703125 10.4375 C-10.86986825 9.63391202 -16.54275351 10.24246866 -22.75 11.3125 Z M15 13 C18.11854817 16.74225781 21.19273319 20.18043527 24.8125 23.4375 C30.72525927 29.19014586 34.20867381 36.76839634 38 44 C38.99 44 39.98 44 41 44 C42.32861274 40.83986097 43.63484136 37.67091607 44.9375 34.5 C45.31068359 33.613125 45.68386719 32.72625 46.06835938 31.8125 C48.25145868 26.46292332 49.5754545 21.76842779 50 16 C46.04290448 15.48987386 42.08416532 14.99378354 38.125 14.5 C37.01640625 14.35691406 35.9078125 14.21382812 34.765625 14.06640625 C28.13589652 13.24743979 21.67970419 12.79592417 15 13 Z M2.56640625 16.484375 C1.75236328 17.00773437 0.93832031 17.53109375 0.09960938 18.0703125 C-0.73763672 18.62460937 -1.57488281 19.17890625 -2.4375 19.75 C-3.27087891 20.28882813 -4.10425781 20.82765625 -4.96289062 21.3828125 C-6.58329539 22.43319346 -8.19735424 23.49344379 -9.80419922 24.56445312 C-11.15735131 25.44910226 -12.53111666 26.3041082 -13.93408203 27.10742188 C-15.7898581 28.13600719 -15.7898581 28.13600719 -18 30 C-18.20042525 32.58036726 -18.20042525 32.58036726 -18 35 C-16.97753174 35.19110352 -15.95506348 35.38220703 -14.90161133 35.57910156 C-11.044042 36.3021794 -7.18841602 37.03521178 -3.33325195 37.77099609 C-1.67652556 38.08581422 -0.01930916 38.3980665 1.63842773 38.70751953 C10.76269008 40.41262813 19.56757224 42.23028422 28.3293457 45.35449219 C31.27716016 46.06699072 33.10785227 45.81665283 36 45 C32.17782205 36.27644092 27.67078596 29.75870406 21 23 C20.20722656 22.13503906 19.41445312 21.27007812 18.59765625 20.37890625 C17.82292969 19.55261719 17.04820312 18.72632813 16.25 17.875 C15.55390625 17.12992188 14.8578125 16.38484375 14.140625 15.6171875 C10.03699757 12.51700181 6.58070191 13.86564496 2.56640625 16.484375 Z M-46.75 20 C-47.65298828 20.57234375 -47.65298828 20.57234375 -48.57421875 21.15625 C-50.05458854 22.09616733 -51.52799967 23.04702869 -53 24 C-52.36694457 27.05309225 -52.36694457 27.05309225 -50.3293457 27.87890625 C-47.99846159 28.61878557 -45.66341168 29.32620699 -43.3125 30 C-42.50876953 30.26683594 -41.70503906 30.53367187 -40.87695312 30.80859375 C-36.40868112 32.19414532 -36.40868112 32.19414532 -32.07958984 31.0078125 C-30.20486193 29.50950963 -30.20486193 29.50950963 -28 27 C-31.67939025 21.25343387 -31.67939025 21.25343387 -36 16 C-40.66150198 16 -42.99573061 17.55766211 -46.75 20 Z M53 18 C52.649375 19.134375 52.29875 20.26875 51.9375 21.4375 C50.84776181 24.77050411 49.59716299 27.99060587 48.20703125 31.20703125 C47.72665405 32.32670288 47.72665405 32.32670288 47.23657227 33.46899414 C46.58547478 34.97436504 45.92339373 36.47503882 45.24975586 37.97045898 C44.94561768 38.67630127 44.64147949 39.38214355 44.328125 40.109375 C44.0487207 40.73811523 43.76931641 41.36685547 43.48144531 42.01464844 C42.85853267 44.58337338 43.34610968 46.46877632 44 49 C48.51690832 50.19089719 53.03742041 51.36646547 57.56201172 52.52783203 C59.10151944 52.92530257 60.63994607 53.3269847 62.17724609 53.73291016 C64.38370295 54.31475468 66.59356997 54.88147706 68.8046875 55.4453125 C69.49432587 55.63062531 70.18396423 55.81593811 70.89450073 56.00686646 C73.02435825 56.56958611 73.02435825 56.56958611 76 57 C78.46875142 54.53124858 78.54461856 53.09148319 79.125 49.6875 C79.29257813 48.74261719 79.46015625 47.79773438 79.6328125 46.82421875 C80.1563793 42.91559028 80.1563793 42.91559028 80 39 C78.53834605 37.03669399 78.53834605 37.03669399 76.375 35.375 C75.56417969 34.69953125 74.75335938 34.0240625 73.91796875 33.328125 C72.95503906 32.55984375 71.99210937 31.7915625 71 31 C70.14075928 30.30487305 70.14075928 30.30487305 69.26416016 29.59570312 C67.41134171 28.09770064 65.55158391 26.608957 63.6875 25.125 C63.08921387 24.64853027 62.49092773 24.17206055 61.87451172 23.68115234 C59.0368801 21.4590452 56.32318591 19.42773913 53 18 Z M59 18 C63.29307221 22.49955264 67.99310717 26.38992629 72.8125 30.3125 C73.60076172 30.95767578 74.38902344 31.60285156 75.20117188 32.26757812 C77.13214363 33.8474641 79.06580183 35.42406566 81 37 C84.3 35.35 87.6 33.7 91 32 C88.147993 29.147993 86.48320543 28.12375077 82.88671875 26.5546875 C81.88576172 26.11769531 80.88480469 25.68070313 79.85351562 25.23046875 C78.80873047 24.78316406 77.76394531 24.33585937 76.6875 23.875 C75.13772461 23.19244141 75.13772461 23.19244141 73.55664062 22.49609375 C68.65639778 20.37757952 64.31966357 18.72872104 59 18 Z M-60 32 C-61.42557356 34.55721737 -61.42557356 34.55721737 -62 37 C-52.55426495 37.30470113 -43.3578564 36.14169926 -34 35 C-37.39673303 33.14723653 -40.86904604 32.00950804 -44.5625 30.875 C-46.26599609 30.34519531 -46.26599609 30.34519531 -48.00390625 29.8046875 C-53.03305265 28.453965 -55.61042675 29.29153991 -60 32 Z M-63 30 C-63.66 31.32 -64.32 32.64 -65 34 C-64.34 34 -63.68 34 -63 34 C-62.67 32.68 -62.34 31.36 -62 30 C-62.33 30 -62.66 30 -63 30 Z M-68 34 C-69.485 35.98 -69.485 35.98 -71 38 C-69.68 37.67 -68.36 37.34 -67 37 C-67.33 36.01 -67.66 35.02 -68 34 Z M88.125 35 C85.7164207 36.83826308 85.7164207 36.83826308 85.66650391 39.79199219 C86.0556277 43.53510105 87.06161483 45.2647355 89.2109375 48.328125 C90.21253906 49.77445313 90.21253906 49.77445313 91.234375 51.25 C91.94078125 52.24 92.6471875 53.23 93.375 54.25 C94.07367188 55.25546875 94.77234375 56.2609375 95.4921875 57.296875 C99.60165284 64.09358671 99.60165284 64.09358671 106.125 67.625 C107.548125 67.810625 107.548125 67.810625 109 68 C109.33 69.32 109.66 70.64 110 72 C111.89492006 72.33848652 113.79098466 72.67056911 115.6875 73 C117.27111328 73.2784375 117.27111328 73.2784375 118.88671875 73.5625 C121.64904062 73.95068074 124.21742043 74.08259976 127 74 C122.23117301 67.47325247 117.14524264 61.23202656 112 55 C110.4358791 53.10550373 108.87334864 51.20969313 107.3125 49.3125 C106.57 48.41273437 105.8275 47.51296875 105.0625 46.5859375 C103.20711299 44.25967575 101.50662645 41.88163035 99.8125 39.4375 C97.87039627 36.83014527 96.89164727 35.94029543 93.9375 34.3125 C90.96054098 33.78458632 90.96054098 33.78458632 88.125 35 Z M-46.875 37.9375 C-47.88175781 38.02451172 -48.88851562 38.11152344 -49.92578125 38.20117188 C-51.38177734 38.33168945 -51.38177734 38.33168945 -52.8671875 38.46484375 C-53.75519043 38.543396 -54.64319336 38.62194824 -55.55810547 38.70288086 C-57.78068426 38.97331461 -59.84554262 39.4014004 -62 40 C-61.43045586 49.16694858 -59.22825378 57.77449442 -56.9375 66.625 C-56.55597908 68.12092519 -56.17511457 69.61701794 -55.79492188 71.11328125 C-54.87083669 74.74414957 -53.93790391 78.37267338 -53 82 C-52.34 82 -51.68 82 -51 82 C-48.26047034 76.66914662 -45.53673648 71.33063336 -42.82739258 65.984375 C-41.9033201 64.16642106 -40.974953 62.35064351 -40.04223633 60.53710938 C-38.70302042 57.93137582 -37.37939624 55.31823 -36.05859375 52.703125 C-35.63783066 51.89256653 -35.21706757 51.08200806 -34.78355408 50.24688721 C-34.40308426 49.48640076 -34.02261444 48.72591431 -33.63061523 47.94238281 C-33.29086166 47.27619934 -32.95110809 46.61001587 -32.60105896 45.92364502 C-31.85576456 43.53838507 -32.19932249 42.33920003 -33 40 C-33.33 39.01 -33.66 38.02 -34 37 C-38.29851925 37 -42.59647477 37.55422677 -46.875 37.9375 Z M-23 43 C-24.1329248 43.09821045 -25.26584961 43.1964209 -26.43310547 43.29760742 C-30.14358048 43.63034503 -30.14358048 43.63034503 -32.00048828 46.4934082 C-32.51853027 47.58484131 -33.03657227 48.67627441 -33.5703125 49.80078125 C-33.85929413 50.39239548 -34.14827576 50.9840097 -34.4460144 51.59355164 C-35.36408216 53.488991 -36.24422874 55.39949188 -37.125 57.3125 C-37.72292036 58.55646602 -38.32316198 59.79931911 -38.92578125 61.04101562 C-42.55347976 68.57990808 -45.8655962 76.24302418 -49 84 C-44.87409232 83.37190657 -41.60523708 81.99965556 -37.87109375 80.15625 C-36.99806862 79.72882759 -36.99806862 79.72882759 -36.10740662 79.29277039 C-34.86204353 78.68277408 -33.61783516 78.07041558 -32.37469482 77.4559021 C-29.09219626 75.83616451 -25.79715855 74.2422575 -22.50390625 72.64453125 C-21.20067053 72.01125735 -19.89744755 71.37795723 -18.59423828 70.74462891 C-2.10424293 62.74045102 14.51002344 56.53032585 32 51 C32 50.01 32 49.02 32 48 C22.1326745 44.44897168 12.24338155 42.10114182 1.9375 40.1875 C0.7724292 39.96876221 -0.3926416 39.75002441 -1.59301758 39.5246582 C-13.47618667 36.91027882 -13.47618667 36.91027882 -23 43 Z M-80 46 C-81.57404347 49.81107754 -82.22309008 53.70393028 -82.90625 57.7578125 C-83.12067749 58.89781708 -83.33510498 60.03782166 -83.55603027 61.21237183 C-84.00276503 63.61549458 -84.43562802 66.02123231 -84.85546875 68.42919922 C-85.49982994 72.12402489 -86.18342861 75.80984142 -86.875 79.49609375 C-87.30437081 81.83291419 -87.73153118 84.17014209 -88.15625 86.5078125 C-88.3581897 87.6140799 -88.56012939 88.72034729 -88.76818848 89.86013794 C-88.94587769 90.88485199 -89.12356689 91.90956604 -89.30664062 92.96533203 C-89.46539673 93.86736359 -89.62415283 94.76939514 -89.78771973 95.69876099 C-90.17021329 98.15941543 -90.17021329 98.15941543 -89 101 C-86.10324491 93.62421274 -83.21660463 86.24458274 -80.34285641 78.85980511 C-79.00819444 75.43101615 -77.67006612 72.00366547 -76.32397461 68.5793457 C-75.02547745 65.27572632 -73.73614137 61.96866776 -72.45312691 58.65900612 C-71.96159219 57.3958287 -71.46674869 56.13393375 -70.96858025 54.87335777 C-70.27235587 53.10998125 -69.58887296 51.34159005 -68.90600586 49.57299805 C-68.51295761 48.567061 -68.11990936 47.56112396 -67.71495056 46.52470398 C-66.71810088 43.90778263 -66.71810088 43.90778263 -68 41 C-73.0462245 40.23542053 -76.70054171 42.32031725 -80 46 Z M82 43 C81.58082532 44.89080952 81.19055854 46.78804224 80.8125 48.6875 C80.59207031 49.74324219 80.37164062 50.79898438 80.14453125 51.88671875 C79.96592557 55.73398166 80.51846278 57.07356567 83 60 C86.06981346 61.8870255 86.06981346 61.8870255 89.5625 63.3125 C90.71878906 63.82425781 91.87507812 64.33601563 93.06640625 64.86328125 C95.78646142 66.12043586 95.78646142 66.12043586 98 66 C96.3537846 61.04187197 93.51367981 57.06419972 90.5625 52.8125 C90.07201172 52.08869141 89.58152344 51.36488281 89.07617188 50.61914062 C88.59857422 49.92626953 88.12097656 49.23339844 87.62890625 48.51953125 C87.19650635 47.89151611 86.76410645 47.26350098 86.31860352 46.61645508 C84.9094379 44.72720851 84.9094379 44.72720851 82 43 Z M106 43 C106.99 44.65 107.98 46.3 109 48 C109.33 47.01 109.66 46.02 110 45 C108.68 44.34 107.36 43.68 106 43 Z M-65 44 C-65.33373375 44.86085709 -65.33373375 44.86085709 -65.67420959 45.73910522 C-68.02707832 51.80821026 -70.38008055 57.87726352 -72.7331543 63.94628906 C-73.60688524 66.19985699 -74.48058411 68.45343735 -75.35424805 70.70703125 C-76.20307127 72.89653738 -77.05197829 75.08601103 -77.90097046 77.27545166 C-78.73815686 79.43491819 -79.57493079 81.59454468 -80.4112854 83.7543335 C-82.32354675 88.69017808 -84.24199152 93.62327451 -86.18310547 98.54785156 C-86.51289902 99.38700104 -86.84269257 100.22615051 -87.18247986 101.09072876 C-87.79108832 102.63773186 -88.40238573 104.18368085 -89.01686096 105.72836304 C-90.49281518 109.25704641 -90.49281518 109.25704641 -91 113 C-88.27313814 111.71347673 -85.91823109 110.29950365 -83.53125 108.4609375 C-82.88317383 107.9669043 -82.23509766 107.47287109 -81.56738281 106.96386719 C-80.88514648 106.43954102 -80.20291016 105.91521484 -79.5 105.375 C-73.66359334 100.90904242 -67.7974602 96.83091241 -61.453125 93.109375 C-58.09107244 90.21843809 -56.22948657 87.26886251 -55 83 C-55.2378138 79.93250307 -55.60396304 77.69968827 -56.4375 74.8125 C-56.72705566 73.67965576 -56.72705566 73.67965576 -57.02246094 72.52392578 C-57.43997659 70.8907028 -57.86828131 69.26020799 -58.30615234 67.63232422 C-59.30261218 63.85194774 -60.18673682 60.04719587 -61.07836914 56.2409668 C-62.03552394 52.1566192 -63.01770103 48.07835978 -64 44 C-64.33 44 -64.66 44 -65 44 Z M112 50 C113.67229701 53.95969176 116.36304994 57.0161201 119.125 60.25 C119.82689453 61.08144531 119.82689453 61.08144531 120.54296875 61.9296875 C121.69175328 63.28947326 122.84539653 64.64515165 124 66 C124.33 65.34 124.66 64.68 125 64 C124.44570312 63.24074219 123.89140625 62.48148438 123.3203125 61.69921875 C122.59585938 60.70535156 121.87140625 59.71148437 121.125 58.6875 C120.40570313 57.70136719 119.68640625 56.71523438 118.9453125 55.69921875 C117.5944065 53.82476885 116.28164671 51.92247007 115 50 C114.01 50 113.02 50 112 50 Z M-84 51 C-87.84661907 54.87033288 -87.84661907 54.87033288 -89.3125 59.875 C-89.209375 60.57625 -89.10625 61.2775 -89 62 C-89.99 62.495 -89.99 62.495 -91 63 C-92.53421618 69.98991436 -92.12425215 77.50925248 -92.0625 84.625 C-92.05798828 85.62917969 -92.05347656 86.63335937 -92.04882812 87.66796875 C-92.03718967 90.11204471 -92.0208424 92.5559882 -92 95 C-91.67 95 -91.34 95 -91 95 C-89.83389918 89.05679432 -88.67645336 83.11199448 -87.52709961 77.16552734 C-87.13463723 75.14162407 -86.73978729 73.11818229 -86.3425293 71.09521484 C-85.77288891 68.19225345 -85.21177375 65.28775646 -84.65234375 62.3828125 C-84.47219223 61.47443634 -84.29204071 60.56606018 -84.10643005 59.63015747 C-83.94618851 58.78943695 -83.78594696 57.94871643 -83.62084961 57.08251953 C-83.47650986 56.34083527 -83.3321701 55.599151 -83.18345642 54.83499146 C-82.82547167 52.90407874 -82.82547167 52.90407874 -84 51 Z M18 57 C17.37516724 57.21775085 16.75033447 57.43550171 16.10656738 57.65985107 C2.28096121 62.50418079 -10.76463126 68.82546121 -23.83045959 75.40864563 C-28.99159852 78.00891242 -34.19865065 80.49841044 -39.4375 82.9375 C-40.1294043 83.26121582 -40.82130859 83.58493164 -41.53417969 83.91845703 C-43.02195076 84.61409481 -44.51081002 85.30740496 -46 86 C-46 87.32 -46 88.64 -46 90 C-22.81389036 101.68865424 -22.81389036 101.68865424 0.578125 112.95703125 C5.77151077 115.40842855 10.89415133 117.96682318 15.98046875 120.6328125 C17.17117985 121.25080565 18.3620969 121.86840214 19.55322266 122.4855957 C21.84426051 123.67829337 24.12699841 124.8871111 26.39990234 126.11401367 C27.43453613 126.65002197 28.46916992 127.18603027 29.53515625 127.73828125 C30.446604 128.22337158 31.35805176 128.70846191 32.29711914 129.20825195 C35.81048283 130.23741268 37.69764126 129.41780945 41 128 C40.34609599 98.52871768 40.34609599 98.52871768 39.5 69.0625 C39.44694702 67.27259644 39.44694702 67.27259644 39.39282227 65.4465332 C39.35600342 64.36202881 39.31918457 63.27752441 39.28125 62.16015625 C39.25095703 61.22824463 39.22066406 60.29633301 39.18945312 59.33618164 C39.08093072 56.84527363 39.08093072 56.84527363 38 54 C30.76382578 51.98060254 24.88036676 54.55825271 18 57 Z M42 53 C40.1802495 54.8197505 40.86756292 57.33914184 40.86108398 59.7612915 C40.86567627 60.59803406 40.87026855 61.43477661 40.875 62.296875 C40.87765869 63.17760681 40.88031738 64.05833862 40.88305664 64.96575928 C40.9674833 77.40132467 41.50738041 89.82540668 42 102.25 C42.09670374 104.76040322 42.1930601 107.27081986 42.2890625 109.78125 C42.52204786 115.85432664 42.75927949 121.92722529 43 128 C44.32 128.33 45.64 128.66 47 129 C47 129.66 47 130.32 47 131 C52.25846236 130.37448356 57.13168421 129.24934356 62.1875 127.6875 C62.88552734 127.48705078 63.58355469 127.28660156 64.30273438 127.08007812 C68.59307071 125.7615447 71.15789252 124.4577198 74 121 C75.14380725 118.08357714 75.14380725 118.08357714 75.8515625 114.80078125 C76.14546875 113.59099609 76.439375 112.38121094 76.7421875 111.13476562 C77.03351563 109.87341797 77.32484375 108.61207031 77.625 107.3125 C77.9240625 106.07048828 78.223125 104.82847656 78.53125 103.54882812 C79.11134414 101.12706343 79.68100953 98.70277246 80.23925781 96.27587891 C80.69963421 94.29342369 81.1781733 92.31490226 81.69042969 90.34521484 C82.88749006 85.6181297 83.64771413 81.74069286 82 77 C79.50495307 74.62604895 76.66956083 73.01033279 73.6875 71.3125 C72.85041504 70.81137695 72.01333008 70.31025391 71.15087891 69.79394531 C69.37021386 68.73063485 67.5835347 67.67734235 65.79150391 66.63330078 C62.95043618 64.97100035 60.13531883 63.27102504 57.32421875 61.55859375 C53.8232383 59.43077735 50.32098278 57.30556111 46.8046875 55.203125 C46.09296387 54.77676758 45.38124023 54.35041016 44.64794922 53.91113281 C43.16798496 52.9193569 43.16798496 52.9193569 42 53 Z M49 53 C51.40934767 55.64660176 54.02112588 57.36924733 57.078125 59.21484375 C58.07457031 59.81876953 59.07101563 60.42269531 60.09765625 61.04492188 C61.13792969 61.66947266 62.17820313 62.29402344 63.25 62.9375 C64.27480469 63.55818359 65.29960937 64.17886719 66.35546875 64.81835938 C71.53321225 67.94699589 76.72970037 71.02987351 82 74 C81.30053366 68.12448273 79.26020614 63.89030921 76 59 C73.55466083 58.0304942 73.55466083 58.0304942 70.66015625 57.39453125 C69.59732422 57.13349609 68.53449219 56.87246094 67.43945312 56.60351562 C66.32505859 56.34248047 65.21066406 56.08144531 64.0625 55.8125 C62.95197266 55.53986328 61.84144531 55.26722656 60.69726562 54.98632812 C54.91120821 53.51524649 54.91120821 53.51524649 49 53 Z M81 62 C82.96014308 69.85036312 82.96014308 69.85036312 88 76 C88.14791992 76.78157471 88.29583984 77.56314941 88.44824219 78.3684082 C89.05112794 81.24385314 89.86830345 82.53561638 91.703125 84.79296875 C92.26563965 85.49760254 92.8281543 86.20223633 93.40771484 86.92822266 C94.01566895 87.67378418 94.62362305 88.4193457 95.25 89.1875 C100.46160655 95.71928984 105.50718499 102.3325573 110.375 109.125 C110.93993164 109.91285889 111.50486328 110.70071777 112.08691406 111.51245117 C113.39404031 113.33968942 114.69862974 115.16865995 116 117 C117.28633764 113.14098709 116.42775074 110.33125893 115.5 106.5 C115.32202881 105.76257568 115.14405762 105.02515137 114.96069336 104.26538086 C113.44406774 98.26733064 111.60952846 92.39965976 109.5625 86.5625 C109.14871094 85.32886719 109.14871094 85.32886719 108.7265625 84.0703125 C107.94077759 81.92298322 107.18162748 79.95814214 106 78 C104.35272126 77.28677145 102.68565093 76.6170925 101 76 C100.55785156 74.88496094 100.11570313 73.76992187 99.66015625 72.62109375 C97.47421755 67.85317569 95.12369792 66.95559982 90.4375 65.0625 C89.75236328 64.76021484 89.06722656 64.45792969 88.36132812 64.14648438 C84.80960975 62.53656124 84.80960975 62.53656124 81 62 Z M-95 66 C-98.94838581 72.95825975 -101.1590201 79.32049337 -102.1875 87.25 C-102.3213208 88.249104 -102.4551416 89.24820801 -102.59301758 90.27758789 C-103.52221816 99.24585823 -101.78867868 105.38824353 -97 113 C-96.67 113 -96.34 113 -96 113 C-94.87660032 103.12373162 -94.67723237 93.23937729 -94.4375 83.3125 C-94.39420592 81.6282468 -94.35058859 79.94400189 -94.30664062 78.25976562 C-94.20070272 74.17326289 -94.09913075 70.0866733 -94 66 C-94.33 66 -94.66 66 -95 66 Z M126 67 C127 69 127 69 127 69 Z M110 74 C109.34 74.66 108.68 75.32 108 76 C108.40146824 80.90164713 110.62597959 85.60522274 112.3125 90.1875 C115.72618368 99.65155914 118.08181807 109.13506434 120 119 C124.48605382 114.69978819 127.85636333 109.84814492 131.375 104.75 C132.04144531 103.83347656 132.70789063 102.91695312 133.39453125 101.97265625 C136.82975319 97.18239831 136.82975319 97.18239831 138.07128906 91.58007812 C137.62986265 89.11701568 137.62986265 89.11701568 136 86 C135.01 85.67 134.02 85.34 133 85 C132.731875 83.865625 132.46375 82.73125 132.1875 81.5625 C131.795625 80.386875 131.40375 79.21125 131 78 C126.58321737 76.04808852 122.01018739 75.40852395 117.25 74.75 C116.57839844 74.646875 115.90679687 74.54375 115.21484375 74.4375 C113.48643055 74.20196473 111.74197684 74.09168299 110 74 Z M86 81 C84.35441615 85.67081713 83.12555701 90.3857546 82.01953125 95.20703125 C81.84242111 95.97303146 81.66531097 96.73903168 81.48283386 97.52824402 C81.11240314 99.13557682 80.74355654 100.74327544 80.3762207 102.35131836 C79.80995121 104.82362793 79.23427673 107.2936308 78.65820312 109.76367188 C78.2989046 111.32799314 77.94016058 112.8924419 77.58203125 114.45703125 C77.40815384 115.19862991 77.23427643 115.94022858 77.05513 116.70429993 C76.65880406 118.4600546 76.32284075 120.22925931 76 122 C77.68281793 123.68281793 79.76907923 123.13008429 82.07421875 123.1328125 C83.65601929 123.13571289 83.65601929 123.13571289 85.26977539 123.13867188 C86.39762451 123.13416016 87.52547363 123.12964844 88.6875 123.125 C89.8211499 123.12306641 90.9547998 123.12113281 92.12280273 123.11914062 C100.12261423 123.07797816 108.03596474 122.79782822 116 122 C114.40414452 116.75941652 111.06290512 113.00919474 107.6875 108.8125 C101.90414341 101.51955341 96.37146393 94.08928329 91.00073242 86.48754883 C90.48873291 85.76720459 89.9767334 85.04686035 89.44921875 84.3046875 C88.99893311 83.66515137 88.54864746 83.02561523 88.0847168 82.36669922 C87.72676025 81.91568848 87.36880371 81.46467773 87 81 C86.67 81 86.34 81 86 81 Z M-105 88 C-105.87213766 90.68280408 -106.72276354 93.36955204 -107.5625 96.0625 C-107.80935547 96.81466797 -108.05621094 97.56683594 -108.31054688 98.34179688 C-109.85281691 103.35960501 -110.13937089 106.86259711 -109 112 C-109.66 112 -110.32 112 -111 112 C-110.80528889 113.94999129 -110.80528889 113.94999129 -110 116 C-106.82026536 118.35535899 -103.84875379 118.17494335 -100 118 C-99.1162392 115.03119876 -98.79088667 113.50433215 -99.99609375 110.59765625 C-100.47175781 109.76105469 -100.94742188 108.92445312 -101.4375 108.0625 C-104.72532773 101.41418537 -104.47783782 95.27375355 -104 88 C-104.33 88 -104.66 88 -105 88 Z M-60.859375 94.45703125 C-61.63949951 94.98748047 -62.41962402 95.51792969 -63.22338867 96.06445312 C-64.05717041 96.64130859 -64.89095215 97.21816406 -65.75 97.8125 C-66.59731689 98.39837891 -67.44463379 98.98425781 -68.31762695 99.58789062 C-73.66452391 103.31395122 -78.98606521 107.07282057 -84.1875 111 C-85.07743652 111.64739136 -85.07743652 111.64739136 -85.98535156 112.30786133 C-88.52242672 114.27260353 -89.87860885 115.45007365 -90.58203125 118.63671875 C-89.63576148 122.47895507 -87.30533377 123.32028 -84.05859375 125.3046875 C-80.25713857 127.41175206 -76.43088927 129.45607705 -72.5625 131.4375 C-71.85222656 131.80399658 -71.14195313 132.17049316 -70.41015625 132.5480957 C-68.63745384 133.42997254 -66.82116047 134.22311189 -65 135 C-64.01 134.505 -64.01 134.505 -63 134 C-62.2498877 131.23936579 -61.62136687 128.52998823 -61.0546875 125.73046875 C-60.87994904 124.89792068 -60.70521057 124.06537262 -60.525177 123.20759583 C-60.15645688 121.44221579 -59.79190083 119.67596178 -59.43115234 117.90893555 C-58.87906328 115.20738297 -58.31372108 112.50887261 -57.74609375 109.81054688 C-57.3898354 108.09651809 -57.03434164 106.38233018 -56.6796875 104.66796875 C-56.51097137 103.86054733 -56.34225525 103.05312592 -56.16842651 102.22123718 C-55.45779185 98.72028014 -55 95.58755662 -55 92 C-57.65432835 92 -58.67068457 92.96540986 -60.859375 94.45703125 Z M-53 94 C-53.83956527 96.81070216 -54.50149687 99.50136353 -55.078125 102.3671875 C-55.25382019 103.19832062 -55.42951538 104.02945374 -55.61053467 104.88577271 C-55.97937767 106.64477964 -56.34211614 108.405076 -56.69921875 110.16650391 C-57.2470892 112.86068599 -57.81728955 115.5494168 -58.390625 118.23828125 C-58.74613588 119.94763765 -59.10034591 121.65726522 -59.453125 123.3671875 C-59.62386536 124.17147186 -59.79460571 124.97575623 -59.97052002 125.80441284 C-60.72042175 129.56009126 -61.11821413 132.33628522 -60 136 C-39.24663325 136.14912942 -18.54882538 135.77116281 2.19146729 135.07287598 C5.91398735 134.94863589 9.63668893 134.83008027 13.359375 134.7109375 C20.57309731 134.47928161 27.78660731 134.24172565 35 134 C35 133.34 35 132.68 35 132 C6.22479699 117.47767328 6.22479699 117.47767328 -22.78466797 103.43310547 C-26.81410968 101.53180767 -30.81908375 99.60105906 -34.78515625 97.5703125 C-35.5332959 97.18786377 -36.28143555 96.80541504 -37.05224609 96.41137695 C-38.41708461 95.70898293 -39.77847737 94.99982571 -41.13525391 94.28198242 C-45.77369678 91.89161533 -48.4139004 90.94260027 -53 94 Z M-93 96 C-92 100 -92 100 -92 100 Z M137 99 C134.65842646 102.29279557 132.35748948 105.61210708 130.0625 108.9375 C129.0734668 110.32678711 129.0734668 110.32678711 128.06445312 111.74414062 C124.18671736 117.41160058 121.33000454 121.99663818 122 129 C122.85975629 133.5850082 124.07176614 138.02324245 125.375 142.5 C125.705 143.69109375 126.035 144.8821875 126.375 146.109375 C127.45292338 151.43482013 127.45292338 151.43482013 130 156 C132.67058851 156.14115161 135.32432238 156.04247107 138 156 C140.50445808 143.42442325 143.00642047 130.79770894 141 118 C141.66 118 142.32 118 143 118 C142.51959659 111.83060889 141.93106086 105.90046374 140 100 C139.01 99.67 138.02 99.34 137 99 Z M-112 118 C-112.05880857 121.95826931 -112.09386513 125.91642392 -112.125 129.875 C-112.14175781 130.98359375 -112.15851563 132.0921875 -112.17578125 133.234375 C-112.22917483 142.31128391 -111.14758429 150.45655693 -108 159 C-107.67 159 -107.34 159 -107 159 C-106.90501221 158.40687012 -106.81002441 157.81374023 -106.7121582 157.20263672 C-104.923893 146.23531766 -103.10808022 135.8610924 -98.7578125 125.58203125 C-98.50773437 124.72996094 -98.25765625 123.87789063 -98 123 C-99.68761154 119.74665741 -99.68761154 119.74665741 -102.8203125 119.26953125 C-104.45613281 119.04330078 -104.45613281 119.04330078 -106.125 118.8125 C-107.76855469 118.57466797 -107.76855469 118.57466797 -109.4453125 118.33203125 C-110.70988281 118.16767578 -110.70988281 118.16767578 -112 118 Z M-96 124 C-99.76598791 132.15354663 -102.52346962 140.04041735 -103.9375 148.9375 C-104.06552002 149.71714111 -104.19354004 150.49678223 -104.32543945 151.30004883 C-105.05921342 156.43975462 -104.84498451 160.87764565 -104 166 C-99.1956792 168.4021604 -94.26896105 168.61122229 -89 169 C-87.80814861 165.42444582 -88.27898358 164.18273039 -89.1875 160.5625 C-91.93896682 148.52483266 -93.33613283 136.22541971 -95 124 C-95.33 124 -95.66 124 -96 124 Z M-93 125 C-90.81969508 144.13808352 -90.81969508 144.13808352 -87 163 C-86.90976563 163.69609375 -86.81953125 164.3921875 -86.7265625 165.109375 C-84.90418147 169.85148479 -79.90780566 171.60675163 -75.5859375 173.61328125 C-73.51916694 174.5211274 -71.44872157 175.42064574 -69.375 176.3125 C-68.32570313 176.77978516 -67.27640625 177.24707031 -66.1953125 177.72851562 C-65.18984375 178.16486328 -64.184375 178.60121094 -63.1484375 179.05078125 C-62.23239746 179.44950439 -61.31635742 179.84822754 -60.37255859 180.2590332 C-57.88992063 181.28811742 -57.88992063 181.28811742 -55 180 C-55.58265625 179.51015625 -56.1653125 179.0203125 -56.765625 178.515625 C-64.89842355 171.09892192 -69.85392508 162.45516881 -75.27734375 152.98583984 C-78.51753033 147.36970012 -81.85754019 141.81315501 -85.1875 136.25 C-85.8477417 135.13616943 -86.5079834 134.02233887 -87.18823242 132.87475586 C-87.80029541 131.84874268 -88.4123584 130.82272949 -89.04296875 129.765625 C-89.86317505 128.38552246 -89.86317505 128.38552246 -90.69995117 126.97753906 C-91.12896729 126.32495117 -91.5579834 125.67236328 -92 125 C-92.33 125 -92.66 125 -93 125 Z M99.25 124.4375 C97.98671875 124.47681641 96.7234375 124.51613281 95.421875 124.55664062 C94.1946875 124.59853516 92.9675 124.64042969 91.703125 124.68359375 C90.58583008 124.72025146 89.46853516 124.75690918 88.31738281 124.79467773 C84.81903005 125.01120075 81.44336779 125.33705275 78 126 C77.67 126.66 77.34 127.32 77 128 C78.56430259 132.15620321 80.65026091 136.08793854 82.625 140.0625 C83.15996094 141.18978516 83.69492188 142.31707031 84.24609375 143.47851562 C84.77589844 144.54908203 85.30570313 145.61964844 85.8515625 146.72265625 C86.33447754 147.71015869 86.81739258 148.69766113 87.31494141 149.71508789 C88.82686358 152.23930938 88.82686358 152.23930938 91.69677734 152.82983398 C92.45684082 152.88598877 93.2169043 152.94214355 94 153 C94.34667725 152.57291748 94.69335449 152.14583496 95.05053711 151.70581055 C96.08928454 150.42630863 97.1281994 149.14694262 98.16723633 147.86767578 C99.35125432 146.40949337 100.5346817 144.9508312 101.7175293 143.49169922 C104.41627174 140.16547064 107.11953545 136.84459733 109.8671875 133.55859375 C110.67414063 132.59050781 111.48109375 131.62242187 112.3125 130.625 C113.03050781 129.77164063 113.74851563 128.91828125 114.48828125 128.0390625 C116.19851958 126.15528278 116.19851958 126.15528278 116 124 C110.41422305 124 104.8321013 124.24899154 99.25 124.4375 Z M-88 126 C-86.49489684 130.09100103 -84.52906044 133.7190966 -82.33203125 137.48046875 C-81.9741301 138.09336258 -81.61622894 138.70625641 -81.2474823 139.33772278 C-80.49020462 140.63216807 -79.73116091 141.92558163 -78.97045898 143.21801758 C-77.82811144 145.16094772 -76.69397927 147.10849969 -75.56054688 149.05664062 C-67.28096686 163.25266251 -67.28096686 163.25266251 -56.5625 175.625 C-55.69753906 176.46289062 -54.83257812 177.30078125 -53.94140625 178.1640625 C-52.98041016 179.07285156 -52.98041016 179.07285156 -52 180 C-50.70591963 176.11775888 -51.58219609 174.70618427 -52.984375 170.8984375 C-53.42523438 169.68542969 -53.86609375 168.47242188 -54.3203125 167.22265625 C-54.79653932 165.93997949 -55.27310412 164.65742816 -55.75 163.375 C-56.21180682 162.116204 -56.67275357 160.85709211 -57.1328125 159.59765625 C-58.01949167 157.17082049 -58.90809856 154.74468799 -59.79882812 152.31933594 C-61.27652543 148.23584557 -62.65639994 144.12933086 -64 140 C-64.66 140 -65.32 140 -66 140 C-66 139.01 -66 138.02 -66 137 C-69.47743476 135.16336737 -72.95722746 133.33124877 -76.4375 131.5 C-77.43072266 130.97535156 -78.42394531 130.45070312 -79.44726562 129.91015625 C-80.39150391 129.41386719 -81.33574219 128.91757813 -82.30859375 128.40625 C-83.18314209 127.94541016 -84.05769043 127.48457031 -84.95874023 127.00976562 C-86.7698279 125.92610115 -86.7698279 125.92610115 -88 126 Z M118 126 C117.57332031 126.53625 117.14664063 127.0725 116.70703125 127.625 C113.37707865 131.79945605 110.03704782 135.96215151 106.64453125 140.0859375 C106.06405029 140.79363281 105.48356934 141.50132812 104.88549805 142.23046875 C103.72470148 143.64448026 102.5608655 145.05600287 101.39379883 146.46484375 C100.85392334 147.12355469 100.31404785 147.78226563 99.7578125 148.4609375 C99.2745752 149.04665527 98.79133789 149.63237305 98.29345703 150.23583984 C96.94403143 152.07633614 95.9612382 153.93404674 95 156 C96.10267706 157.32887035 96.10267706 157.32887035 98.86743164 157.11352539 C100.11903076 157.10828857 101.37062988 157.10305176 102.66015625 157.09765625 C103.32462265 157.0962413 103.98908905 157.09482635 104.6736908 157.09336853 C106.80333899 157.08775518 108.93288339 157.07520054 111.0625 157.0625 C112.50325369 157.05748671 113.94400903 157.05292351 115.38476562 157.04882812 C118.92321102 157.03778145 122.46159539 157.02050792 126 157 C127.22514431 153.32456708 126.63624965 151.8002535 125.63671875 148.08984375 C125.17168945 146.35831055 125.17168945 146.35831055 124.69726562 144.59179688 C124.36404297 143.38587891 124.03082031 142.17996094 123.6875 140.9375 C123.36587891 139.72771484 123.04425781 138.51792969 122.71289062 137.27148438 C121.34930208 131.09856317 121.34930208 131.09856317 118 126 Z M59.9375 129.5 C59.03966797 129.73203125 58.14183594 129.9640625 57.21679688 130.203125 C52.71547199 131.5150353 49.83964829 132.42791919 47.50390625 136.65625 C47.00761719 137.7596875 46.51132813 138.863125 46 140 C45.01 140.495 45.01 140.495 44 141 C43.70437633 146.32170494 43.70437633 146.32170494 46 151 C48.51745472 151.61878296 50.86454177 152.050716 53.421875 152.38671875 C54.15948059 152.49345413 54.89708618 152.60018951 55.65704346 152.7101593 C57.21970782 152.93381113 58.78329268 153.15110929 60.34765625 153.36254883 C62.72866844 153.6846146 65.10645861 154.02503343 67.484375 154.36914062 C69.00505476 154.58442096 70.52588416 154.7986474 72.046875 155.01171875 C72.75334167 155.11167648 73.45980835 155.21163422 74.18768311 155.31462097 C78.15476922 155.84698702 81.99852966 156.09874873 86 156 C87.06009978 153.29694557 87.05134206 152.14923958 86.09130859 149.35864258 C84.53753738 146.16670749 82.97370768 142.98222412 81.375 139.8125 C80.84003906 138.69423828 80.30507812 137.57597656 79.75390625 136.42382812 C79.22410156 135.36228516 78.69429687 134.30074219 78.1484375 133.20703125 C77.66552246 132.2322583 77.18260742 131.25748535 76.68505859 130.25317383 C75.18443204 127.82064134 75.18443204 127.82064134 72.59838867 127.11401367 C68.11971949 126.91749591 64.20130369 128.24575926 59.9375 129.5 Z M143 133 C143 134.65 143 136.3 143 138 C143.33 138 143.66 138 144 138 C144 136.35 144 134.7 144 133 C143.67 133 143.34 133 143 133 Z M-12.43408203 136.79956055 C-16.25732401 136.9158448 -20.0807068 137.02646055 -23.90415955 137.13556576 C-26.88815871 137.22145049 -29.87205256 137.31063747 -32.85592651 137.40075874 C-34.26550125 137.44289004 -35.67510814 137.48396097 -37.08474731 137.5238781 C-44.76275197 137.74297969 -52.37098819 138.08122296 -60 139 C-61.25009186 142.75027558 -60.55725473 144.10751104 -59.33984375 147.828125 C-58.77692627 149.56932617 -58.77692627 149.56932617 -58.20263672 151.34570312 C-57.60733154 153.15458008 -57.60733154 153.15458008 -57 155 C-56.63793457 156.14919922 -56.27586914 157.29839844 -55.90283203 158.48242188 C-54.81852999 161.91515156 -53.69442753 165.33271273 -52.5625 168.75 C-52.19318359 169.92304688 -51.82386719 171.09609375 -51.44335938 172.3046875 C-51.07146484 173.41585937 -50.69957031 174.52703125 -50.31640625 175.671875 C-49.99099854 176.6731543 -49.66559082 177.67443359 -49.33032227 178.70605469 C-48.19408425 181.2052738 -48.19408425 181.2052738 -45.61254883 181.96899414 C-42.57388024 182.00505721 -41.3992415 181.48229592 -38.8828125 179.82421875 C-38.11928467 179.33115234 -37.35575684 178.83808594 -36.5690918 178.33007812 C-35.7625415 177.78802734 -34.95599121 177.24597656 -34.125 176.6875 C-33.27784424 176.13642578 -32.43068848 175.58535156 -31.55786133 175.01757812 C-27.73734561 172.52260618 -23.95320296 169.97703053 -20.19140625 167.39453125 C-2.81769081 155.49116561 16.12430559 146.25852535 35 137 C35 136.67 35 136.34 35 136 C19.18025823 135.80985887 3.37616189 136.31825263 -12.43408203 136.79956055 Z M28.3515625 141.63671875 C27.43630043 142.10182358 27.43630043 142.10182358 26.50254822 142.57632446 C24.52900355 143.58807649 22.57767538 144.63611451 20.625 145.6875 C19.2677174 146.39579726 17.90955729 147.10241546 16.55053711 147.80737305 C2.14131636 155.33153555 -11.65472562 163.56186291 -25.09130859 172.70605469 C-28.52547093 175.03415144 -31.98314589 177.3270215 -35.4375 179.625 C-36.70712697 180.47121057 -37.97666754 181.3175508 -39.24609375 182.1640625 C-40.15488281 182.76992187 -41.06367187 183.37578125 -42 184 C-41.67 184.66 -41.34 185.32 -41 186 C-38.37565198 186.83538289 -38.37565198 186.83538289 -35.1640625 187.47265625 C-33.95363281 187.73240234 -32.74320313 187.99214844 -31.49609375 188.25976562 C-30.21863281 188.52466797 -28.94117187 188.78957031 -27.625 189.0625 C-25.76681641 189.4656543 -25.76681641 189.4656543 -23.87109375 189.87695312 C-10.24627804 193.47701911 -10.24627804 193.47701911 3 191 C5.26776839 189.12673998 7.31122629 187.06185098 9.3671875 184.9609375 C9.96500031 184.36125153 10.56281311 183.76156555 11.17874146 183.14370728 C12.44120912 181.87453038 13.70008036 180.60176721 14.95556641 179.32568359 C16.85470779 177.39562259 18.76408407 175.47621102 20.67578125 173.55859375 C32.4076432 162.43780742 32.4076432 162.43780742 41 149 C41.33 148.67 41.66 148.34 42 148 C42.04080783 146.00041636 42.04254356 143.99954746 42 142 C36.39877046 138.97682569 34.23584244 138.56497285 28.3515625 141.63671875 Z M142 141 C142 143.31 142 145.62 142 148 C142.33 148 142.66 148 143 148 C143 145.69 143 143.38 143 141 C142.67 141 142.34 141 142 141 Z M141 149 C141 150.65 141 152.3 141 154 C141.33 154 141.66 154 142 154 C142 152.35 142 150.7 142 149 C141.67 149 141.34 149 141 149 Z M46 153 C44.91803478 156.24589565 45.07030641 157.2357949 45.80444336 160.47143555 C46.00472641 161.37214279 46.20500946 162.27285004 46.41136169 163.20085144 C46.63526077 164.16968765 46.85915985 165.13852386 47.08984375 166.13671875 C47.31321915 167.13129593 47.53659454 168.12587311 47.76673889 169.15058899 C48.48290115 172.33128974 49.21006097 175.50936134 49.9375 178.6875 C50.42455371 180.84163295 50.91089094 182.99592803 51.39648438 185.15039062 C52.58934436 190.4355042 53.79124652 195.71850012 55 201 C55.66 201 56.32 201 57 201 C57.23332031 200.50113281 57.46664062 200.00226563 57.70703125 199.48828125 C60.62220237 193.75064764 64.34898806 189.00577111 68.54785156 184.17578125 C72.69108554 179.40731076 76.6039453 174.48731647 80.47119141 169.4934082 C82.23571243 167.22038251 83.9628088 165.0371912 86 163 C85.59471099 160.21762345 85.59471099 160.21762345 84 158 C81.19685438 157.55443798 78.40482592 157.16371183 75.58984375 156.80859375 C74.74780899 156.69902847 73.90577423 156.5894632 73.03822327 156.47657776 C70.33848133 156.12622455 67.63801946 155.78180365 64.9375 155.4375 C63.1112778 155.20156108 61.28510518 154.96523802 59.45898438 154.72851562 C54.9732203 154.14787836 50.48680169 153.5725617 46 153 Z M38.86328125 156.90625 C38.02152344 157.7621875 37.17976563 158.618125 36.3125 159.5 C35.48363281 160.3353125 34.65476563 161.170625 33.80078125 162.03125 C31.72520641 164.18775921 29.76683561 166.42202182 27.8203125 168.6953125 C22.48881915 174.83782016 16.58162401 180.4254994 10.76757812 186.10546875 C9.46143555 187.39517578 9.46143555 187.39517578 8.12890625 188.7109375 C7.33556885 189.48743652 6.54223145 190.26393555 5.72485352 191.06396484 C3.77826306 192.81672808 3.77826306 192.81672808 4 195 C12.18548018 196.76596615 20.3732859 198.520657 28.56347656 200.26464844 C31.38543646 200.86849493 34.2049073 201.48198725 37.0234375 202.1015625 C38.32801366 202.38072916 39.63268823 202.65943666 40.9375 202.9375 C42.01902344 203.17339844 43.10054687 203.40929687 44.21484375 203.65234375 C47.09828728 204.01226868 49.20767707 203.74564793 52 203 C53.04834614 199.85496157 52.98111088 198.96391783 52.30322266 195.8515625 C52.12618805 195.02060059 51.94915344 194.18963867 51.76675415 193.33349609 C51.56786591 192.43969238 51.36897766 191.54588867 51.1640625 190.625 C50.96525482 189.70412598 50.76644714 188.78325195 50.56161499 187.83447266 C49.92339425 184.88800306 49.27411994 181.94408543 48.625 179 C48.19463106 177.01577268 47.76493531 175.03139922 47.3359375 173.046875 C46.54632771 169.4132152 45.75672 165.77957098 44.95556641 162.1484375 C44.79488678 161.41802246 44.63420715 160.68760742 44.46865845 159.93505859 C43.98087463 157.80256816 43.98087463 157.80256816 43 155 C40.77149265 154.77809416 40.77149265 154.77809416 38.86328125 156.90625 Z M140 156 C141 159 141 159 141 159 Z M96 159 C94.90377283 163.38490869 95.02280849 163.78140118 97.01953125 167.51171875 C97.46490234 168.35154297 97.91027344 169.19136719 98.36914062 170.05664062 C99.08360352 171.35891602 99.08360352 171.35891602 99.8125 172.6875 C100.50956055 174.00717773 100.50956055 174.00717773 101.22070312 175.35351562 C103.34287456 179.9131687 103.34287456 179.9131687 107 183 C107.42152344 183.75667969 107.84304687 184.51335937 108.27734375 185.29296875 C110.31240638 188.49092432 112.47702305 190.13089113 115.5625 192.3125 C116.53316406 193.00988281 117.50382812 193.70726562 118.50390625 194.42578125 C120.79010458 196.17781502 120.79010458 196.17781502 123 196 C127.86306819 177.31713751 127.86306819 177.31713751 126 159 C116.1 159 106.2 159 96 159 Z M136 158 C134.02 158.99 134.02 158.99 132 160 C132 160.66 132 161.32 132 162 C131.34 162 130.68 162 130 162 C129.46626918 165.24801825 128.95028732 168.49861491 128.4375 171.75 C128.28603516 172.67039063 128.13457031 173.59078125 127.97851562 174.5390625 C127.83994141 175.42851562 127.70136719 176.31796875 127.55859375 177.234375 C127.42767334 178.05131836 127.29675293 178.86826172 127.16186523 179.70996094 C126.99568117 182.06110207 127.29740455 183.76426496 128 186 C129.53574781 181.90125875 131.05101224 177.79524311 132.5625 173.6875 C133.21895508 171.93663086 133.21895508 171.93663086 133.88867188 170.15039062 C134.50258789 168.47299805 134.50258789 168.47299805 135.12890625 166.76171875 C135.51119385 165.73006592 135.89348145 164.69841309 136.28735352 163.63549805 C137.28146554 160.92290033 137.28146554 160.92290033 136 158 Z M139 160 C140 163 140 163 140 163 Z M88 163 C87.33355469 163.85980469 86.66710937 164.71960938 85.98046875 165.60546875 C81.16897187 171.78437877 76.29914212 177.87863122 71.1875 183.8125 C63.48367601 192.51273225 63.48367601 192.51273225 59 203 C64.8798035 201.1119956 70.61744363 199.02094076 76.31640625 196.64453125 C77.05833725 196.33803146 77.80026825 196.03153168 78.56468201 195.71574402 C80.89848703 194.75086271 83.23051311 193.78176602 85.5625 192.8125 C87.15938866 192.15141111 88.75639292 191.49060139 90.35351562 190.83007812 C94.23701846 189.22327024 98.11893362 187.61268346 102 186 C101.29850147 180.22779298 99.96309391 176.17215265 97.25 171.125 C96.91484375 170.44953125 96.5796875 169.7740625 96.234375 169.078125 C94.12385344 165.08222443 94.12385344 165.08222443 90.234375 163.0546875 C89.49703125 163.03664062 88.7596875 163.01859375 88 163 Z M138 163 C136.96794141 165.7671136 135.94909171 168.53791254 134.9375 171.3125 C134.64294922 172.09818359 134.34839844 172.88386719 134.04492188 173.69335938 C133.77099609 174.45068359 133.49707031 175.20800781 133.21484375 175.98828125 C132.82993774 177.03302612 132.82993774 177.03302612 132.43725586 178.09887695 C131.77905038 180.20519371 131.77905038 180.20519371 133 183 C134.03444249 180.42138975 135.05272284 177.83825365 136.0625 175.25 C136.35705078 174.52039063 136.65160156 173.79078125 136.95507812 173.0390625 C137.3659668 171.97558594 137.3659668 171.97558594 137.78515625 170.890625 C138.04176025 170.24125977 138.29836426 169.59189453 138.56274414 168.92285156 C139.08330284 166.63367214 138.72364304 165.20743336 138 163 Z M-104 168 C-101.73450317 182.15236292 -94.36872045 194.65555722 -86 206 C-85.57420654 206.60763184 -85.14841309 207.21526367 -84.7097168 207.84130859 C-80.35885824 213.91614994 -75.22135617 219.1104703 -69.9375 224.375 C-69.05255859 225.27605469 -68.16761719 226.17710937 -67.25585938 227.10546875 C-66.39669922 227.96527344 -65.53753906 228.82507813 -64.65234375 229.7109375 C-63.87882568 230.48743652 -63.10530762 231.26393555 -62.30834961 232.06396484 C-59.94239193 234.04831644 -57.9143371 235.03445877 -55 236 C-58.85011406 231.287649 -58.85011406 231.287649 -63.27783203 227.14135742 C-72.51302989 219.32716904 -75.01802243 209.40471993 -78.5 198.1875 C-79.109155 196.29921681 -79.72111534 194.41183621 -80.3359375 192.52539062 C-81.4570912 189.07975102 -82.55950814 185.62916271 -83.64648438 182.17260742 C-84.63702221 179.05532404 -85.72256928 176.01408101 -87 173 C-87.66 173 -88.32 173 -89 173 C-89 172.34 -89 171.68 -89 171 C-89.83144531 170.86722656 -90.66289063 170.73445312 -91.51953125 170.59765625 C-92.60621094 170.42105469 -93.69289063 170.24445313 -94.8125 170.0625 C-95.89144531 169.88847656 -96.97039062 169.71445313 -98.08203125 169.53515625 C-101 169 -101 169 -104 168 Z M-84 172 C-80.7735 198.43223143 -70.49835429 220.82165432 -49.81323242 237.58349609 C-49.21486572 238.05094238 -48.61649902 238.51838867 -48 239 C-47.34 238.67 -46.68 238.34 -46 238 C-46.433125 237.32195312 -46.86625 236.64390625 -47.3125 235.9453125 C-47.869375 235.01460937 -48.42625 234.08390625 -49 233.125 C-49.556875 232.22007812 -50.11375 231.31515625 -50.6875 230.3828125 C-53.68479735 222.65763541 -51.77443476 214.16132832 -50.5 206.1875 C-50.21549821 204.36899534 -49.93414133 202.5499953 -49.65625 200.73046875 C-49.53056641 199.94051514 -49.40488281 199.15056152 -49.27539062 198.33666992 C-49.18451172 197.56556885 -49.09363281 196.79446777 -49 196 C-48.90396484 195.20118408 -48.80792969 194.40236816 -48.70898438 193.5793457 C-49.13513566 189.80225822 -50.57175348 187.89693246 -53 185 C-55.35869117 183.6149116 -57.4140795 182.57352687 -59.91796875 181.5703125 C-60.57581863 181.2902536 -61.23366852 181.0101947 -61.91145325 180.72164917 C-63.99672044 179.83889498 -66.09153323 178.98199182 -68.1875 178.125 C-69.60680626 177.52767015 -71.02543471 176.92872707 -72.44335938 176.328125 C-78.08766405 173.46551217 -78.08766405 173.46551217 -84 172 Z M131 183 C132 185 132 185 132 185 Z M130 185 C131 187 131 187 131 187 Z M-40 189 C-35.9233955 192.31616097 -31.73570681 195.45491708 -27.5 198.5625 C-26.84902344 199.04396484 -26.19804688 199.52542969 -25.52734375 200.02148438 C-20.43803894 203.7822648 -20.43803894 203.7822648 -15 207 C-9.91903048 206.19774166 -6.15001856 201.84901403 -3 198 C-3 197.34 -3 196.68 -3 196 C-6.82155786 195.15789669 -10.64441669 194.32198974 -14.46850586 193.49145508 C-16.398316 193.07103643 -18.32710037 192.64591803 -20.25585938 192.22070312 C-26.83881878 190.79410879 -33.2870774 189.57706299 -40 189 Z M105 189 C103.26159155 194.6383381 101.53457979 200.27999161 99.81811523 205.92504883 C99.23238395 207.84560437 98.64352962 209.7652103 98.05151367 211.68383789 C97.20192066 214.43913996 96.36355579 217.19764315 95.52734375 219.95703125 C95.25969711 220.81649857 94.99205048 221.67596588 94.71629333 222.56147766 C94.47596878 223.36208115 94.23564423 224.16268463 93.98803711 224.98754883 C93.77263779 225.6914827 93.55723846 226.39541656 93.33531189 227.12068176 C92.80681229 229.2170133 92.80681229 229.2170133 94 232 C101.53472419 224.69475979 108.46117961 217.22833809 115 209 C116.9793133 206.6477726 118.98656986 204.32318863 121 202 C119.61835262 197.33183044 117.49588763 195.46124347 113.5625 192.6875 C112.59441406 191.99011719 111.62632812 191.29273438 110.62890625 190.57421875 C108.08172849 188.74312716 108.08172849 188.74312716 105 189 Z M99 189 C93.6322822 191.14282128 88.27633822 193.31208261 82.92944336 195.50634766 C81.10982822 196.24871045 79.28723447 196.98381609 77.46166992 197.71142578 C74.83471987 198.75991714 72.21966405 199.83422719 69.60546875 200.9140625 C68.78974899 201.23307526 67.97402924 201.55208801 67.1335907 201.88076782 C63.16965107 203.54793035 61.38075875 204.39660255 59.0246582 208.13037109 C58.686521 209.07734863 58.34838379 210.02432617 58 211 C57.67 211.66 57.34 212.32 57 213 C58.77747064 219.01888335 62.12942701 224.96067147 67 229 C67.99 229 68.98 229 70 229 C71.61507581 227.18265663 73.02068123 225.40161079 74.4375 223.4375 C75.32789323 222.24104449 76.21988785 221.04577945 77.11328125 219.8515625 C77.5820166 219.2215332 78.05075195 218.59150391 78.53369141 217.94238281 C80.99724853 214.67896949 83.56103683 211.49722926 86.125 208.3125 C86.62862061 207.68520996 87.13224121 207.05791992 87.65112305 206.41162109 C88.63512148 205.18615558 89.61956458 203.96104696 90.60449219 202.73632812 C92.65747179 200.18195603 94.70367886 197.62220913 96.75 195.0625 C97.83333333 193.70833333 98.91666667 192.35416667 100 191 C99.505 190.01 99.505 190.01 99 189 Z M-46 191 C-48.72893887 193.72893887 -48.32610826 200.42052287 -48.83935547 204.13598633 C-49.12160505 206.16311733 -49.41782546 208.18787826 -49.71484375 210.21289062 C-49.89402344 211.49744141 -50.07320313 212.78199219 -50.2578125 214.10546875 C-50.4242627 215.28262451 -50.59071289 216.45978027 -50.76220703 217.67260742 C-51.13997066 222.95858329 -50.33999611 226.93772831 -47.71484375 231.5234375 C-47.26689453 232.31621094 -46.81894531 233.10898438 -46.35742188 233.92578125 C-45.88884766 234.73402344 -45.42027344 235.54226562 -44.9375 236.375 C-44.22883789 237.62216797 -44.22883789 237.62216797 -43.50585938 238.89453125 C-42.34522454 240.9344349 -41.17650227 242.96922018 -40 245 C-38.68 245 -37.36 245 -36 245 C-35.67 245.99 -35.34 246.98 -35 248 C-33.46155045 248.36789011 -31.91899612 248.71863066 -30.375 249.0625 C-29.08722656 249.35833984 -29.08722656 249.35833984 -27.7734375 249.66015625 C-24.63769184 250.04439551 -22.07852379 249.64549692 -19 249 C-18.77462889 245.87598221 -18.57261352 242.75088667 -18.375 239.625 C-18.31054688 238.73554688 -18.24609375 237.84609375 -18.1796875 236.9296875 C-18.128125 236.07890625 -18.0765625 235.228125 -18.0234375 234.3515625 C-17.97106934 233.56604004 -17.91870117 232.78051758 -17.86474609 231.97119141 C-17.79941634 229.76255463 -17.79941634 229.76255463 -20 228 C-20.0721875 227.14535156 -20.144375 226.29070312 -20.21875 225.41015625 C-21.36044718 220.42664807 -24.29152786 217.32994876 -27.5 213.4375 C-28.77898709 211.84741676 -30.05501657 210.25495016 -31.328125 208.66015625 C-31.95396484 207.87656738 -32.57980469 207.09297852 -33.22460938 206.28564453 C-36.48979385 202.08203383 -39.40759798 197.65760457 -42.328125 193.2109375 C-43.15570313 192.11652344 -43.15570313 192.11652344 -44 191 C-44.66 191 -45.32 191 -46 191 Z M-39 194 C-34.63781273 200.72838078 -29.96441339 207.17091042 -25.125 213.5625 C-24.43664062 214.47580078 -23.74828125 215.38910156 -23.0390625 216.33007812 C-21.36158355 218.55506756 -19.68187036 220.77832935 -18 223 C-16.03206131 219.32221294 -15.29944056 216.19216779 -15 212 C-16.27227003 208.42770768 -18.1463597 206.89301213 -21.24609375 204.80078125 C-22.08333984 204.23166016 -22.92058594 203.66253906 -23.78320312 203.07617188 C-24.65912109 202.49416016 -25.53503906 201.91214844 -26.4375 201.3125 C-27.30955078 200.71888672 -28.18160156 200.12527344 -29.08007812 199.51367188 C-33.79531555 196.27754546 -33.79531555 196.27754546 -39 194 Z M100 194 C92.69690892 202.94019099 85.44631151 211.91423251 78.33984375 221.01171875 C76.81913235 222.95386269 75.27079603 224.87479799 73.69140625 226.76953125 C71.79858875 228.79905935 71.79858875 228.79905935 72 231 C73.89385437 231.50744423 75.79018666 232.00564574 77.6875 232.5 C78.74324219 232.7784375 79.79898438 233.056875 80.88671875 233.34375 C83.72643206 233.94233449 86.11800473 234.05127345 89 234 C92.33299504 226.17876662 94.89976284 218.2093474 97.3125 210.0625 C97.68439453 208.84498047 98.05628906 207.62746094 98.43945312 206.37304688 C98.78556641 205.20966797 99.13167969 204.04628906 99.48828125 202.84765625 C99.80321533 201.79586182 100.11814941 200.74406738 100.44262695 199.66040039 C101.25133323 196.91393211 101.25133323 196.91393211 100 194 Z M-3 200 C-5.13890173 201.98463755 -5.13890173 201.98463755 -6.875 204.1875 C-7.47054687 204.90292969 -8.06609375 205.61835938 -8.6796875 206.35546875 C-9.11539063 206.89816406 -9.55109375 207.44085938 -10 208 C-5.64665762 212.76243643 -0.64712115 214.72056122 5.1875 217.25 C6.19103516 217.70890625 7.19457031 218.1678125 8.22851562 218.640625 C14.14572675 221.22772056 19.50614549 223.34546932 26 222 C28.733387 220.90855404 31.06882098 219.45955325 33.5 217.8125 C34.79228629 216.98591124 36.08525366 216.16038629 37.37890625 215.3359375 C37.99523926 214.9347168 38.61157227 214.53349609 39.24658203 214.12011719 C41.5891652 212.62362992 43.99887214 211.27046246 46.4375 209.9375 C47.13746094 209.55464844 47.83742187 209.17179688 48.55859375 208.77734375 C49.27208984 208.39255859 49.27208984 208.39255859 50 208 C49.505 207.01 49.505 207.01 49 206 C47.09740324 205.33369491 47.09740324 205.33369491 44.7590332 204.89916992 C43.85752029 204.70945114 42.95600739 204.51973236 42.0271759 204.32426453 C41.04496567 204.12831192 40.06275543 203.93235931 39.05078125 203.73046875 C37.54272163 203.42439445 37.54272163 203.42439445 36.00419617 203.11213684 C33.87068468 202.68307457 31.73619054 202.25887482 29.60083008 201.83911133 C26.33931642 201.19281391 23.08507791 200.51612866 19.83007812 199.83789062 C17.75818839 199.42519173 15.68593272 199.01432488 13.61328125 198.60546875 C12.64119217 198.39939499 11.66910309 198.19332123 10.66755676 197.98100281 C5.1390964 196.93254827 1.84710159 196.60755611 -3 200 Z M47.55224609 210.8269043 C46.71773926 211.32101807 45.88323242 211.81513184 45.0234375 212.32421875 C43.64671875 213.12569336 43.64671875 213.12569336 42.2421875 213.94335938 C41.29601562 214.51892578 40.34984375 215.09449219 39.375 215.6875 C38.42109375 216.24373047 37.4671875 216.79996094 36.484375 217.37304688 C30.83897737 220.66523295 30.83897737 220.66523295 26 225 C28.68660783 225.64974205 31.37418674 226.29488418 34.0625 226.9375 C34.81466797 227.11990234 35.56683594 227.30230469 36.34179688 227.49023438 C43.41494792 229.17431796 50.13901017 230.13200943 57.4375 230.0625 C58.67371094 230.05347656 59.90992188 230.04445312 61.18359375 230.03515625 C62.11300781 230.02355469 63.04242188 230.01195312 64 230 C62.88625 228.6078125 62.88625 228.6078125 61.75 227.1875 C58.84748591 223.20877283 57.53658263 219.05780005 56.1875 214.35546875 C55.18623202 211.83015742 55.18623202 211.83015742 52.73681641 210.70751953 C50.02944718 209.74143576 50.02944718 209.74143576 47.55224609 210.8269043 Z M-13 213 C-13.77076022 215.43838377 -13.77076022 215.43838377 -14.25 218.3125 C-14.44078125 219.27800781 -14.6315625 220.24351562 -14.828125 221.23828125 C-15.0258516 224.41538816 -14.78253538 225.39825821 -13 228 C-10.28979569 229.70208568 -10.28979569 229.70208568 -6.99609375 231.12890625 C-6.39877945 231.40468002 -5.80146515 231.6804538 -5.18605042 231.96458435 C-3.9202894 232.54606227 -2.65171853 233.12145699 -1.38061523 233.69116211 C0.53708613 234.55110383 2.44571093 235.4289005 4.35351562 236.31054688 C10.79910371 239.26441945 17.21444165 241.92970478 24 244 C23.67 242.845 23.34 241.69 23 240.5 C21.91598066 236.22499413 21.84298623 232.39638547 22 228 C21.34 228 20.68 228 20 228 C19.79963135 227.40219727 19.5992627 226.80439453 19.39282227 226.18847656 C17.39754981 223.05339816 15.12070381 222.40358225 11.71484375 220.984375 C11.09855606 220.72368225 10.48226837 220.4629895 9.8473053 220.19439697 C7.88237413 219.36700186 5.91022568 218.55860841 3.9375 217.75 C2.60562256 217.19128801 1.27423566 216.6314051 -0.05664062 216.0703125 C-6.45237356 212.59092897 -6.45237356 212.59092897 -13 213 Z M24 228 C23.59631705 234.45892714 24.4084738 239.06108578 27 245 C31.60282906 244.38404218 35.60025975 243.16273187 39.9296875 241.49609375 C40.56488312 241.2533522 41.20007874 241.01061066 41.85452271 240.76051331 C43.86341403 239.99143407 45.86920469 239.21461315 47.875 238.4375 C49.24459348 237.91159295 50.61438339 237.38619716 51.984375 236.86132812 C55.32520837 235.58012222 58.66330853 234.29196034 62 233 C62 232.67 62 232.34 62 232 C61.34515625 231.9498877 60.6903125 231.89977539 60.015625 231.84814453 C57.0098235 231.61411232 54.00495665 231.36963195 51 231.125 C49.45505859 231.00705078 49.45505859 231.00705078 47.87890625 230.88671875 C42.02692227 230.40215957 36.66558716 229.51756799 31 228 C28.63531089 227.84993319 26.37210404 227.90116233 24 228 Z M-16 230 C-16.33 236.27 -16.66 242.54 -17 249 C-16.34 249 -15.68 249 -15 249 C-15 249.66 -15 250.32 -15 251 C-2.3920843 250.66714808 9.68158713 249.77033613 22 247 C19.51194064 244.51194064 17.05545169 243.50686735 13.85546875 242.03125 C13.24866776 241.75027466 12.64186676 241.46929932 12.01667786 241.17980957 C10.73236394 240.58607733 9.44707336 239.99445384 8.16088867 239.40478516 C6.20350169 238.50733667 4.24897652 237.6038965 2.29492188 236.69921875 C-6.51626707 232.02174873 -6.51626707 232.02174873 -16 230 Z M72 233 C72 233.66 72 234.32 72 235 C70.88625 234.76410156 69.7725 234.52820313 68.625 234.28515625 C63.18963438 233.60573555 58.97194288 235.40977214 54 237.4375 C52.69482422 237.94506836 52.69482422 237.94506836 51.36328125 238.46289062 C49.23543651 239.2929839 47.11536695 240.13871608 45 241 C45 241.33 45 241.66 45 242 C53.59413721 241.48788893 61.83155324 240.21163547 70.25 238.4375 C71.38824219 238.20353516 72.52648437 237.96957031 73.69921875 237.72851562 C76.46750142 237.15857508 79.23430339 236.58233635 82 236 C78.66688525 234.2175082 75.75519057 233.51207144 72 233 Z M77.06958008 238.71264648 C75.56836357 238.98303993 75.56836357 238.98303993 74.03681946 239.25889587 C72.95861435 239.46092117 71.88040924 239.66294647 70.76953125 239.87109375 C69.66397385 240.0722731 68.55841644 240.27345245 67.4193573 240.48072815 C63.88241975 241.12600928 60.34748761 241.78162922 56.8125 242.4375 C54.41744245 242.87633239 52.02226152 243.31449202 49.62695312 243.75195312 C43.74984731 244.82682793 37.87435568 245.91020123 32 247 C34.43502752 249.43502752 36.43336311 250.02259478 39.6875 251.125 C41.20923828 251.65480469 41.20923828 251.65480469 42.76171875 252.1953125 C49.61604626 253.89855914 55.06512557 252.72393353 61.5625 250.5 C62.34028809 250.23880371 63.11807617 249.97760742 63.91943359 249.70849609 C71.49528592 247.040768 78.23483241 243.28533124 85 239 C81.70973568 237.90324523 80.41625485 238.09726296 77.06958008 238.71264648 Z M8.0625 250.9375 C1.31785808 251.89338087 -5.34453746 252.37451501 -12.1484375 252.65625 C-13.08945313 252.7696875 -14.03046875 252.883125 -15 253 C-15.33 253.66 -15.66 254.32 -16 255 C-6.88548115 257.37965271 1.55720203 259.16566312 11 259 C11 258.34 11 257.68 11 257 C11.9075 256.773125 12.815 256.54625 13.75 256.3125 C17.44888324 254.81872023 18.77905658 253.24599423 21 250 C16.57889391 249.8990615 12.43371142 250.28727637 8.0625 250.9375 Z M22 253 C20.1436647 254.90480359 18.6094936 256.86978788 17 259 C26.61700032 259.56081859 35.61653547 257.84809149 45 256 C42.34054286 254.22702858 40.004042 253.06931028 37.0625 251.875 C36.20785156 251.52179688 35.35320312 251.16859375 34.47265625 250.8046875 C29.41627762 249.15916776 26.3561897 250.33294508 22 253 Z " fill="#0086B5" transform="translate(116,1)"/>
</svg>
